<?xml version="1.0" encoding="UTF-8" standalone="no"?>
<!DOCTYPE svg PUBLIC "-//W3C//DTD SVG 1.1//EN"
 "http://www.w3.org/Graphics/SVG/1.1/DTD/svg11.dtd">
<!-- Generated by graphviz version 2.43.0 (0)
 -->
<!-- Title: G Pages: 1 -->
<svg width="107pt" height="221pt"
 viewBox="0.00 0.00 107.00 221.00" xmlns="http://www.w3.org/2000/svg" xmlns:xlink="http://www.w3.org/1999/xlink">
<g id="graph0" class="graph" transform="scale(1 1) rotate(0) translate(4 217)">
<title>G</title>
<polygon fill="white" stroke="transparent" points="-4,4 -4,-217 103,-217 103,4 -4,4"/>
<!-- mulle&#45;sde -->
<g id="node1" class="node">
<title>mulle&#45;sde</title>
<polygon fill="none" stroke="black" points="6.5,-176.5 6.5,-212.5 92.5,-212.5 92.5,-176.5 6.5,-176.5"/>
<text text-anchor="middle" x="49.5" y="-190.8" font-family="Times,serif" font-size="14.00">mulle&#45;sde</text>
</g>
<!-- mulle&#45;craft -->
<g id="node2" class="node">
<title>mulle&#45;craft</title>
<polygon fill="none" stroke="black" points="2,-88.5 2,-124.5 97,-124.5 97,-88.5 2,-88.5"/>
<text text-anchor="middle" x="49.5" y="-102.8" font-family="Times,serif" font-size="14.00">mulle&#45;craft</text>
</g>
<!-- mulle&#45;sde&#45;&gt;mulle&#45;craft -->
<g id="edge1" class="edge">
<title>mulle&#45;sde&#45;&gt;mulle&#45;craft</title>
<path fill="none" stroke="black" stroke-dasharray="1,5" d="M49.5,-176.1C49.5,-164.25 49.5,-148.32 49.5,-134.79"/>
<polygon fill="black" stroke="black" points="53,-134.58 49.5,-124.58 46,-134.58 53,-134.58"/>
<text text-anchor="middle" x="66" y="-146.8" font-family="Times,serif" font-size="14.00">runs</text>
</g>
<!-- mulle&#45;make -->
<g id="node3" class="node">
<title>mulle&#45;make</title>
<polygon fill="none" stroke="blue" points="0,-0.5 0,-36.5 99,-36.5 99,-0.5 0,-0.5"/>
<text text-anchor="middle" x="49.5" y="-14.8" font-family="Times,serif" font-size="14.00" fill="blue">mulle&#45;make</text>
</g>
<!-- mulle&#45;craft&#45;&gt;mulle&#45;make -->
<g id="edge2" class="edge">
<title>mulle&#45;craft&#45;&gt;mulle&#45;make</title>
<path fill="none" stroke="black" stroke-dasharray="1,5" d="M49.5,-88.1C49.5,-76.25 49.5,-60.32 49.5,-46.79"/>
<polygon fill="black" stroke="black" points="53,-46.58 49.5,-36.58 46,-46.58 53,-46.58"/>
<text text-anchor="middle" x="66" y="-58.8" font-family="Times,serif" font-size="14.00">runs</text>
</g>
</g>
</svg>
