<?xml version="1.0" encoding="UTF-8" standalone="no"?>
<!DOCTYPE svg PUBLIC "-//W3C//DTD SVG 1.1//EN"
 "http://www.w3.org/Graphics/SVG/1.1/DTD/svg11.dtd">
<!-- Generated by graphviz version 2.43.0 (0)
 -->
<!-- Title: G Pages: 1 -->
<svg width="746pt" height="548pt"
 viewBox="0.00 0.00 746.00 548.00" xmlns="http://www.w3.org/2000/svg" xmlns:xlink="http://www.w3.org/1999/xlink">
<g id="graph0" class="graph" transform="scale(1 1) rotate(0) translate(4 544)">
<title>G</title>
<polygon fill="white" stroke="transparent" points="-4,4 -4,-544 742,-544 742,4 -4,4"/>
<!-- &#45;&#45;definition&#45;dir &lt;dir&gt; -->
<g id="node1" class="node">
<title>&#45;&#45;definition&#45;dir &lt;dir&gt;</title>
<text text-anchor="middle" x="83.5" y="-230.3" font-family="Times,serif" font-size="14.00" fill="#3867d6">&#45;&#45;definition&#45;dir &lt;dir&gt;</text>
</g>
<!-- definition -->
<g id="node2" class="node">
<title>definition</title>
<polygon fill="none" stroke="black" points="206.5,-180 203.5,-184 182.5,-184 179.5,-180 122.5,-180 122.5,-144 206.5,-144 206.5,-180"/>
<text text-anchor="middle" x="164.5" y="-158.3" font-family="Times,serif" font-size="14.00">definition</text>
</g>
<!-- &#45;&#45;definition&#45;dir &lt;dir&gt;&#45;&gt;definition -->
<g id="edge1" class="edge">
<title>&#45;&#45;definition&#45;dir &lt;dir&gt;&#45;&gt;definition</title>
<path fill="none" stroke="black" stroke-dasharray="1,5" d="M103.52,-215.7C113.63,-206.97 126.04,-196.24 137.02,-186.75"/>
<polygon fill="black" stroke="black" points="139.43,-189.29 144.71,-180.1 134.85,-183.99 139.43,-189.29"/>
</g>
<!-- set -->
<g id="node16" class="node">
<title>set</title>
<polygon fill="none" stroke="black" points="191.5,-108 188.5,-112 167.5,-112 164.5,-108 137.5,-108 137.5,-72 191.5,-72 191.5,-108"/>
<text text-anchor="middle" x="164.5" y="-86.3" font-family="Times,serif" font-size="14.00">set</text>
</g>
<!-- definition&#45;&gt;set -->
<g id="edge15" class="edge">
<title>definition&#45;&gt;set</title>
<path fill="none" stroke="#16a085" d="M164.5,-143.7C164.5,-132.85 164.5,-118.92 164.5,-108.1"/>
</g>
<!-- &#45;&#45;build&#45;dir &lt;dir&gt; -->
<g id="node3" class="node">
<title>&#45;&#45;build&#45;dir &lt;dir&gt;</title>
<text text-anchor="middle" x="670.5" y="-518.3" font-family="Times,serif" font-size="14.00" fill="#3867d6">&#45;&#45;build&#45;dir &lt;dir&gt;</text>
</g>
<!-- build -->
<g id="node4" class="node">
<title>build</title>
<polygon fill="none" stroke="#eb3b5a" points="697.5,-468 694.5,-472 673.5,-472 670.5,-468 643.5,-468 643.5,-432 697.5,-432 697.5,-468"/>
<text text-anchor="middle" x="670.5" y="-446.3" font-family="Times,serif" font-size="14.00" fill="#eb3b5a">build</text>
</g>
<!-- &#45;&#45;build&#45;dir &lt;dir&gt;&#45;&gt;build -->
<g id="edge2" class="edge">
<title>&#45;&#45;build&#45;dir &lt;dir&gt;&#45;&gt;build</title>
<path fill="none" stroke="black" stroke-dasharray="1,5" d="M670.5,-503.7C670.5,-495.98 670.5,-486.71 670.5,-478.11"/>
<polygon fill="black" stroke="black" points="674,-478.1 670.5,-468.1 667,-478.1 674,-478.1"/>
</g>
<!-- .log -->
<g id="node6" class="node">
<title>.log</title>
<polygon fill="none" stroke="#eb3b5a" points="644.5,-396 641.5,-400 620.5,-400 617.5,-396 590.5,-396 590.5,-360 644.5,-360 644.5,-396"/>
<text text-anchor="middle" x="617.5" y="-374.3" font-family="Times,serif" font-size="14.00" fill="#eb3b5a">.log</text>
</g>
<!-- build&#45;&gt;.log -->
<g id="edge11" class="edge">
<title>build&#45;&gt;.log</title>
<path fill="none" stroke="#eb3b5a" d="M657.4,-431.7C649.18,-420.85 638.64,-406.92 630.45,-396.1"/>
</g>
<!-- &#45;&#45;log&#45;dir &lt;dir&gt; -->
<g id="node5" class="node">
<title>&#45;&#45;log&#45;dir &lt;dir&gt;</title>
<text text-anchor="middle" x="564.5" y="-446.3" font-family="Times,serif" font-size="14.00" fill="#3867d6">&#45;&#45;log&#45;dir &lt;dir&gt;</text>
</g>
<!-- &#45;&#45;log&#45;dir &lt;dir&gt;&#45;&gt;.log -->
<g id="edge3" class="edge">
<title>&#45;&#45;log&#45;dir &lt;dir&gt;&#45;&gt;.log</title>
<path fill="none" stroke="black" stroke-dasharray="1,5" d="M577.6,-431.7C583.89,-423.39 591.55,-413.28 598.46,-404.14"/>
<polygon fill="black" stroke="black" points="601.3,-406.19 604.55,-396.1 595.72,-401.96 601.3,-406.19"/>
</g>
<!-- &#45;&#45;include&#45;path &lt;path&gt; -->
<g id="node7" class="node">
<title>&#45;&#45;include&#45;path &lt;path&gt;</title>
<text text-anchor="middle" x="88.5" y="-446.3" font-family="Times,serif" font-size="14.00" fill="#3867d6">&#45;&#45;include&#45;path &lt;path&gt;</text>
</g>
<!-- include -->
<g id="node8" class="node">
<title>include</title>
<polygon fill="none" stroke="#8854d0" points="161.5,-396 158.5,-400 137.5,-400 134.5,-396 93.5,-396 93.5,-360 161.5,-360 161.5,-396"/>
<text text-anchor="middle" x="127.5" y="-374.3" font-family="Times,serif" font-size="14.00" fill="#8854d0">include</text>
</g>
<!-- &#45;&#45;include&#45;path &lt;path&gt;&#45;&gt;include -->
<g id="edge4" class="edge">
<title>&#45;&#45;include&#45;path &lt;path&gt;&#45;&gt;include</title>
<path fill="none" stroke="black" stroke-dasharray="1,5" d="M98.14,-431.7C102.63,-423.64 108.06,-413.89 113.02,-404.98"/>
<polygon fill="black" stroke="black" points="116.16,-406.54 117.97,-396.1 110.05,-403.14 116.16,-406.54"/>
</g>
<!-- &#45;&#45;library&#45;path &lt;path&gt; -->
<g id="node9" class="node">
<title>&#45;&#45;library&#45;path &lt;path&gt;</title>
<text text-anchor="middle" x="400.5" y="-446.3" font-family="Times,serif" font-size="14.00" fill="#3867d6">&#45;&#45;library&#45;path &lt;path&gt;</text>
</g>
<!-- lib -->
<g id="node10" class="node">
<title>lib</title>
<polygon fill="none" stroke="#8854d0" points="386.5,-396 383.5,-400 362.5,-400 359.5,-396 332.5,-396 332.5,-360 386.5,-360 386.5,-396"/>
<text text-anchor="middle" x="359.5" y="-374.3" font-family="Times,serif" font-size="14.00" fill="#8854d0">lib</text>
</g>
<!-- &#45;&#45;library&#45;path &lt;path&gt;&#45;&gt;lib -->
<g id="edge5" class="edge">
<title>&#45;&#45;library&#45;path &lt;path&gt;&#45;&gt;lib</title>
<path fill="none" stroke="black" stroke-dasharray="1,5" d="M390.37,-431.7C385.65,-423.64 379.94,-413.89 374.72,-404.98"/>
<polygon fill="black" stroke="black" points="377.59,-402.96 369.52,-396.1 371.55,-406.5 377.59,-402.96"/>
</g>
<!-- dependency -->
<g id="node11" class="node">
<title>dependency</title>
<polygon fill="none" stroke="#8854d0" points="296.5,-468 293.5,-472 272.5,-472 269.5,-468 194.5,-468 194.5,-432 296.5,-432 296.5,-468"/>
<text text-anchor="middle" x="245.5" y="-446.3" font-family="Times,serif" font-size="14.00" fill="#8854d0">dependency</text>
</g>
<!-- dependency&#45;&gt;include -->
<g id="edge9" class="edge">
<title>dependency&#45;&gt;include</title>
<path fill="none" stroke="#8854d0" d="M216.63,-431.88C198.35,-421.03 174.78,-407.05 156.48,-396.19"/>
</g>
<!-- dependency&#45;&gt;lib -->
<g id="edge8" class="edge">
<title>dependency&#45;&gt;lib</title>
<path fill="none" stroke="#8854d0" d="M273.39,-431.88C291.32,-420.87 314.5,-406.63 332.29,-395.71"/>
</g>
<!-- share -->
<g id="node13" class="node">
<title>share</title>
<polygon fill="none" stroke="black" points="273.5,-396 270.5,-400 249.5,-400 246.5,-396 217.5,-396 217.5,-360 273.5,-360 273.5,-396"/>
<text text-anchor="middle" x="245.5" y="-374.3" font-family="Times,serif" font-size="14.00">share</text>
</g>
<!-- dependency&#45;&gt;share -->
<g id="edge10" class="edge">
<title>dependency&#45;&gt;share</title>
<path fill="none" stroke="#8854d0" d="M245.5,-431.7C245.5,-420.85 245.5,-406.92 245.5,-396.1"/>
</g>
<!-- project -->
<g id="node12" class="node">
<title>project</title>
<polygon fill="none" stroke="#7f8c8d" points="432,-540 429,-544 408,-544 405,-540 365,-540 365,-504 432,-504 432,-540"/>
<text text-anchor="middle" x="398.5" y="-518.3" font-family="Times,serif" font-size="14.00" fill="#7f8c8d">project</text>
</g>
<!-- project&#45;&gt;build -->
<g id="edge6" class="edge">
<title>project&#45;&gt;build</title>
<path fill="none" stroke="#7f8c8d" d="M432.18,-515.69C478.36,-507.89 563.58,-491.66 633.5,-468 636.71,-466.91 640.02,-465.64 643.28,-464.28"/>
</g>
<!-- project&#45;&gt;dependency -->
<g id="edge7" class="edge">
<title>project&#45;&gt;dependency</title>
<path fill="none" stroke="#7f8c8d" d="M364.92,-505.64C340.65,-494.53 307.84,-479.52 282.75,-468.04"/>
</g>
<!-- mulle&#45;craft -->
<g id="node14" class="node">
<title>mulle&#45;craft</title>
<polygon fill="none" stroke="black" points="293,-324 290,-328 269,-328 266,-324 198,-324 198,-288 293,-288 293,-324"/>
<text text-anchor="middle" x="245.5" y="-302.3" font-family="Times,serif" font-size="14.00">mulle&#45;craft</text>
</g>
<!-- share&#45;&gt;mulle&#45;craft -->
<g id="edge12" class="edge">
<title>share&#45;&gt;mulle&#45;craft</title>
<path fill="none" stroke="black" d="M245.5,-359.7C245.5,-351.98 245.5,-342.71 245.5,-334.11"/>
<polygon fill="black" stroke="black" points="249,-334.1 245.5,-324.1 242,-334.1 249,-334.1"/>
</g>
<!-- project.darwin -->
<g id="node15" class="node">
<title>project.darwin</title>
<polygon fill="none" stroke="black" points="306,-252 303,-256 282,-256 279,-252 185,-252 185,-216 306,-216 306,-252"/>
<text text-anchor="middle" x="245.5" y="-230.3" font-family="Times,serif" font-size="14.00">project.darwin</text>
</g>
<!-- mulle&#45;craft&#45;&gt;project.darwin -->
<g id="edge13" class="edge">
<title>mulle&#45;craft&#45;&gt;project.darwin</title>
<path fill="none" stroke="black" d="M245.5,-287.7C245.5,-279.98 245.5,-270.71 245.5,-262.11"/>
<polygon fill="black" stroke="black" points="249,-262.1 245.5,-252.1 242,-262.1 249,-262.1"/>
</g>
<!-- project.darwin&#45;&gt;definition -->
<g id="edge14" class="edge">
<title>project.darwin&#45;&gt;definition</title>
<path fill="none" stroke="#16a085" d="M225.48,-215.7C212.92,-204.85 196.8,-190.92 184.29,-180.1"/>
</g>
<!-- CFLAGS -->
<g id="node17" class="node">
<title>CFLAGS</title>
<polygon fill="none" stroke="#16a085" points="197,-36 126,-36 126,0 203,0 203,-30 197,-36"/>
<polyline fill="none" stroke="#16a085" points="197,-36 197,-30 "/>
<polyline fill="none" stroke="#16a085" points="203,-30 197,-30 "/>
<text text-anchor="middle" x="164.5" y="-14.3" font-family="Times,serif" font-size="14.00" fill="#16a085">CFLAGS</text>
</g>
<!-- set&#45;&gt;CFLAGS -->
<g id="edge16" class="edge">
<title>set&#45;&gt;CFLAGS</title>
<path fill="none" stroke="#16a085" d="M164.5,-71.7C164.5,-60.85 164.5,-46.92 164.5,-36.1"/>
</g>
</g>
</svg>
